<?xml version="1.0" encoding="UTF-8"?>
<svg width="24px" height="33px" viewBox="0 0 24 33" version="1.1" xmlns="http://www.w3.org/2000/svg" xmlns:xlink="http://www.w3.org/1999/xlink">
    <title>021-enemy</title>
    <defs>
        <filter id="filter-1">
            <feColorMatrix in="SourceGraphic" type="matrix" values="0 0 0 0 0.847000 0 0 0 0 0.847000 0 0 0 0 0.847000 0 0 0 1.000000 0"></feColorMatrix>
        </filter>
    </defs>
    <g id="Page-1" stroke="none" stroke-width="1" fill="none" fill-rule="evenodd">
        <g id="021-enemy" transform="translate(-194.000000, -159.000000)" filter="url(#filter-1)">
            <g transform="translate(194.000000, 159.000000)">
                <path d="M16.2379074,26.6886292 C17.8900223,25.1404953 19.0171967,22.9304581 19.0059516,20.6557159 C18.9426728,14.4203796 10.274231,11.1556778 5.15045927,15.5118027 C3.00084688,17.3391495 2.06627657,20.1242294 3.24858858,23.1875152 C3.34627535,23.4407959 3.63102725,23.5669327 3.88405611,23.4692459 C4.13758847,23.3713074 4.26347354,23.0868072 4.16578671,22.8335266 C2.08289336,17.4358291 7.69812012,13.4606323 12.6398621,14.7157059 C13.1859512,14.8551865 17.9773865,16.2084503 18.0227051,20.665535 C18.0320206,22.6414261 16.9952316,24.6314163 15.5656814,25.9710846 C15.3272553,26.1944046 15.1905441,26.5113831 15.1905441,26.8462372 L15.2008667,29.2053223 L15.2008667,29.2096023 C15.2008667,29.328186 15.1044388,29.4248657 14.9848481,29.4248657 L13.0207901,29.4180679 L13.0207901,26.7135544 C13.0207901,26.4418945 12.8007431,26.2218476 12.5290833,26.2218476 C12.2576752,26.2218476 12.0376282,26.4418945 12.0376282,26.7135544 L12.0376282,29.4145432 L9.69943999,29.4064865 L9.69943999,26.7135544 C9.69943999,26.4418945 9.47939302,26.2218476 9.20773315,26.2218476 C8.93632511,26.2218476 8.71627808,26.4418945 8.71627808,26.7135544 L8.71627808,29.4029617 L6.88137817,29.3966675 C6.76329805,29.396164 6.66712187,29.299736 6.66712187,29.1814041 L6.66712187,26.8079682 C6.66712187,25.9524536 6.06085966,25.9869461 5.0288544,24.4700317 C4.87602998,24.2454529 4.57012939,24.187294 4.34555054,24.3398667 C4.12122343,24.492691 4.06306454,24.7985916 4.21563721,25.0231705 C4.62098691,25.6188584 5.09305571,26.167717 5.61900333,26.6546402 C5.66004179,26.6929092 5.68370821,26.7485504 5.68370821,26.8079682 L5.68370821,29.1814041 C5.68370821,29.8397827 6.21947481,30.3775635 6.87810518,30.3798294 L14.9856033,30.4082794 C15.6464996,30.4082794 16.1840286,29.8704986 16.1840286,29.2156448 C16.1840286,29.2126236 16.1842804,29.2078399 16.1842804,29.2045669 C16.1732025,26.6569062 16.147522,26.7734756 16.2379074,26.6886292 L16.2379074,26.6886292 Z" id="Path" fill="#000000" fill-rule="nonzero"></path>
                <path d="M16.0727463,31.0777359 C13.9012299,32.0865784 12.1514282,32.0148239 11.0950012,32.0148239 C6.00370792,32.0148239 1.19288632,28.1640015 0.986434969,21.8919067 C0.917198197,19.5217437 1.99729155,15.2983017 2.63552856,13.0290985 C3.71058652,15.0991516 7.06038667,15.1288604 7.91514591,12.5766678 C8.25730131,11.5554886 8.49975586,10.50737 8.63571167,9.46176909 C8.67070772,9.19262695 8.48087309,8.94589233 8.21173096,8.91089629 C7.94258882,8.8759003 7.6958542,9.06573486 7.6606064,9.334877 C7.53270723,10.3177872 7.30460356,11.303215 6.98284151,12.2644729 C6.33755493,14.191269 3.44773868,13.9440308 3.29138945,11.7030258 C3.24153902,10.9902649 2.23974609,10.885025 2.03631592,11.563797 C1.25406645,14.1786804 -0.0747756797,19.1868896 0.00352478027,21.9138107 C0.00704956055,28.0265351 4.98126982,32.9982376 11.0950012,32.9982376 C12.0877304,32.9982376 14.0658875,33.0946655 16.4871597,31.9697571 C16.7333908,31.8554535 16.8401413,31.5628967 16.7258377,31.3166656 C16.6115341,31.0704346 16.3189773,30.9634323 16.0727463,31.0777359 L16.0727463,31.0777359 Z" id="Path" fill="#000000" fill-rule="nonzero"></path>
                <path d="M23.3433609,17.8074417 C23.3337937,17.1744919 22.5208282,16.9463882 22.171875,17.4544602 C21.7257385,18.103775 21.2002945,18.703743 20.6109009,19.2369919 C20.4384384,19.3933411 20.176094,19.2118149 20.2576675,18.9968033 C21.7426071,15.0994034 21.7008133,11.0330658 18.6725235,8.13997652 C18.2334366,7.72052763 17.5017929,8.09365083 17.5951996,8.70092012 C17.700943,9.39127348 17.6886062,10.1591721 17.5236969,10.8807449 C17.4292832,11.2923889 16.8449249,11.2606659 16.78022,10.8540573 C15.9659958,5.73028564 12.0784149,2.53809355 7.50778198,0.0783004922 C7.02413179,-0.18202974 6.45764921,0.246734619 6.57749174,0.783004793 C6.82926176,1.90766142 7.79530331,4.19851685 7.78749849,7.43527222 C7.78623966,7.70768741 8.00679013,7.92899321 8.27920532,7.92899321 C8.54960636,7.92899321 8.76965332,7.71020508 8.7706604,7.43930054 C8.77594755,5.21415714 8.3836899,3.46788028 7.7494812,1.33488468 C12.6995315,4.13985445 15.1953277,7.14548491 15.8091431,11.0083923 C16.0447998,12.4898071 18.1495972,12.5542603 18.4821853,11.1000366 C18.5982514,10.5917129 18.6503677,10.0708008 18.6465912,9.55819702 C20.7430801,12.1441269 20.5237885,15.5369797 19.3389587,18.646843 C18.8895493,19.8266373 20.3397446,20.8082886 21.2705383,19.9663696 C21.6182327,19.6519089 21.945282,19.3160477 22.2496719,18.9623108 L21.8825913,22.8556824 C21.6071548,25.7752075 20.0794144,28.42836 17.6906204,30.1348572 C17.4695664,30.292717 17.418457,30.5998764 17.5763168,30.8206787 C17.7341767,31.0419846 18.041336,31.0928421 18.2621384,30.9349823 C20.8828125,29.0628204 22.5593491,26.1516037 22.8614731,22.9478302 C23.3708038,17.5483704 23.3441162,17.8489838 23.3433609,17.8074417 L23.3433609,17.8074417 Z" id="Path" fill="#000000" fill-rule="nonzero"></path>
                <path d="M10.3590774,22.1879883 C10.9230423,21.782135 10.6795807,20.8848267 9.97865292,20.8327103 C8.0823212,20.6922226 6.41837309,18.9114532 5.7909622,18.1523667 C5.36748506,17.6395111 4.52304838,17.8910293 4.46640015,18.568039 C4.00968936,24.0085373 6.71168515,24.8101731 10.3590774,22.1879883 L10.3590774,22.1879883 Z M5.4090271,19.212822 C6.26856991,20.1577148 7.64650728,21.3712463 9.29157255,21.7244797 C6.39369966,23.577507 5.25192261,22.6071853 5.4090271,19.212822 Z" id="Shape" fill="#000000" fill-rule="nonzero"></path>
                <path d="M17.270668,18.568039 C17.213768,17.8910293 16.3695831,17.6397629 15.946106,18.1523667 C15.3186951,18.9114532 13.654747,20.6924744 11.7581635,20.832962 C11.0534592,20.8853302 10.8165435,21.7838974 11.3782425,22.1879883 C14.8433533,24.6792526 17.7455063,24.2283325 17.270668,18.568039 L17.270668,18.568039 Z M16.3277893,19.212822 C16.4856491,22.6210327 15.3325424,23.5707092 12.4452439,21.7244797 C14.0905609,21.3712463 15.4682465,20.1577148 16.3277893,19.212822 Z" id="Shape" fill="#000000" fill-rule="nonzero"></path>
            </g>
        </g>
    </g>
</svg>