<?xml version="1.0" encoding="UTF-8"?>
<svg width="30px" height="34px" viewBox="0 0 30 34" version="1.1" xmlns="http://www.w3.org/2000/svg" xmlns:xlink="http://www.w3.org/1999/xlink">
    <title>001-superhero</title>
    <g id="Page-1" stroke="none" stroke-width="1" fill="none" fill-rule="evenodd">
        <g id="icon" transform="translate(-48.000000, -161.000000)" fill="#000000" fill-rule="nonzero">
            <g id="001-superhero" transform="translate(48.000000, 161.000000)">
                <path d="M26.5743448,24.5645161 C24.4879032,22.5942541 20.6181955,21.5133568 17.6643145,21.4044859 C19.0410786,20.6066028 20.5123488,19.3578629 21.3379536,17.858871 L21.3429939,17.858871 C22.9438004,17.8036794 24.2285786,16.484375 24.2285786,14.8707157 C24.2285786,13.9586694 23.8182964,13.141129 23.172631,12.5922379 C23.3334174,12.4314516 23.4332157,12.2096774 23.4332157,11.9649697 L23.4332157,9.14516129 C23.4332157,7.90372981 22.5748488,6.8578629 21.4196068,6.57283265 C21.6229839,6.15322581 21.7482359,5.686996 21.7741935,5.19380039 C21.7883065,4.92590723 21.5821573,4.69657258 21.3145161,4.68220768 C21.046119,4.66784271 20.8172883,4.87399194 20.8029234,5.1423891 C20.7752016,5.65700606 20.5977823,6.1388609 20.3230846,6.52091735 C19.8777722,6.58316529 19.4674899,6.75680445 19.1217238,7.01285284 C18.8969254,7.17893148 18.6990928,7.37978832 18.5362903,7.60735884 C18.2825101,7.64339716 18.7769657,7.63281252 11.3981855,7.63281252 C10.4944556,7.63281252 9.70413303,7.09652219 9.34753026,6.33215729 L9.34753026,6.33165323 C8.6423891,4.84198587 9.73135084,3.1113911 11.3840726,3.10080645 C13.9790826,3.25252013 18.6320565,3.12424394 20.8067036,1.63558465 L20.8067036,3.22353832 C20.8067036,3.49193548 21.0239415,3.70967742 21.2930948,3.70967742 C21.5614919,3.70967742 21.7792339,3.49193548 21.7792339,3.22353832 L21.7792339,0.486139097 C21.7792339,0.00403225806 21.1486895,-0.183467742 20.8853326,0.221018129 C19.3251008,2.61844761 11.2220262,2.12852826 11.3981855,2.12852826 C9.093498,2.12852826 7.52368955,4.48084677 8.40423387,6.60307458 C7.30796374,6.92792335 6.50529232,7.94455645 6.50529232,9.14516129 L6.50529232,11.9649697 C6.50529232,12.2094254 6.60483871,12.4311996 6.76562503,12.5917339 C6.11995968,13.140625 5.70992942,13.9581653 5.70992942,14.8699597 C5.70992942,16.484375 6.99470768,17.8036794 8.59551413,17.858871 L8.60055445,17.858871 C9.42615929,19.3576109 10.8974294,20.6066028 12.2741935,21.4044859 C9.32031252,21.5133568 5.45060484,22.5942541 3.36416329,24.5645161 C2.37928426,25.4934476 1.55267135,26.6754032 0.973790323,27.9810988 C0.864919355,28.2268145 0.975050387,28.5141129 1.22076613,28.6229839 C1.46648187,28.7318548 1.75378026,28.6209677 1.86265123,28.3760081 C3.125,25.5267137 5.03074594,24.1582661 7.66003026,23.2605846 C5.39440523,24.9740423 3.98991935,27.6509577 3.98991935,30.6315524 C3.98991935,31.1663306 4.16557458,31.6605343 4.46244961,32.0597278 L0.979082645,32.0597278 C1.01134071,31.4178427 1.10660284,30.7709174 1.26285284,30.1330645 C1.3271169,29.8722278 1.16759071,29.608367 0.906502,29.5448588 C0.64566529,29.4808468 0.382560516,29.640121 0.318296387,29.9014617 C0.132308452,30.6600303 0.0252016129,31.4322077 9.16829336e-15,32.1945565 L9.16829336e-15,32.2225303 C9.16829336e-15,32.6691028 0.36365929,33.0322581 0.810483871,33.0322581 L29.1280242,33.0322581 C29.5748488,33.0322581 29.9385081,32.6691028 29.9385081,32.2225303 L29.9385081,32.1958165 C29.84375,29.3160283 28.5861895,26.4634577 26.5743448,24.5645161 Z M20.4337197,23.2515121 C19.891381,23.6539819 18.8193045,24.2547883 17.0693045,24.4654738 C17.6922883,23.671623 17.6383568,22.9122984 17.6383568,22.421119 C18.624496,22.530998 19.5688004,22.8160283 20.4337197,23.2515121 L20.4337197,23.2515121 Z M23.2563004,14.8707157 C23.2563004,15.7918347 22.6358367,16.5705645 21.7910786,16.8117439 C21.7900706,16.811996 21.7890625,16.812248 21.7883065,16.8125 C21.9233871,16.3772681 21.9989919,15.9271674 21.9989919,15.4657258 L21.9989919,13.0020161 C22.7356351,13.3029234 23.2563004,14.0272177 23.2563004,14.8707157 L23.2563004,14.8707157 Z M19.1595262,8.468498 C19.8946573,6.80267135 22.4606855,7.33014116 22.4606855,9.14516129 L22.4606855,11.8800403 C21.9606855,11.8800403 21.4649697,11.8800403 20.9682459,11.8800403 C19.8921371,11.8800403 19.016129,11.0047883 19.016129,9.92842742 C19.016129,9.08593748 18.9831149,8.86869961 19.1595262,8.468498 L19.1595262,8.468498 Z M8.14742942,16.8117439 C7.30267135,16.5705645 6.68220768,15.7913306 6.68220768,14.8699597 C6.68220768,14.0264617 7.20287297,13.3024194 7.93951613,13.0015121 L7.93951613,15.4657258 C7.93951613,15.9271674 8.01512097,16.3772681 8.15020161,16.8125 C8.14944555,16.812248 8.14843748,16.811996 8.14742942,16.8117439 L8.14742942,16.8117439 Z M7.47782258,11.8800403 L7.47782258,9.14516129 C7.47782258,8.28200606 8.13256052,7.58064516 8.94632058,7.48109877 C9.43548387,8.04485884 10.0907258,8.4206149 10.8140121,8.55216735 C10.9490928,8.90675406 10.922379,9.10282258 10.922379,9.92842742 C10.922379,10.9400201 10.1320565,11.8800403 8.91204639,11.8800403 C7.499496,11.8800403 8.22152219,11.8800403 7.47782258,11.8800403 Z M8.91204639,12.8523186 C10.6643145,12.8523186 11.8949093,11.4800907 11.8949093,9.92842742 C11.8949093,9.09828632 11.9090222,8.938004 11.8397177,8.60534271 L18.0987903,8.60534271 C18.0294859,8.93850806 18.0435988,9.10030245 18.0435988,9.92842742 C18.0435988,11.4715222 19.265373,12.8523186 21.0267137,12.8523186 C21.0267137,14.8881048 21.828881,18.0531754 16.9206149,20.7061492 C16.7638609,20.7910786 16.6658266,20.9551412 16.6658266,21.1340726 L16.6658266,22.8210685 C16.6658266,25.063004 13.2726814,25.0637601 13.2726814,22.8210685 C13.2726814,21.765373 13.2726814,22.1381048 13.2726814,21.1340726 C13.2726814,20.9551412 13.1746472,20.7910786 13.0178932,20.7061492 C8.12676413,18.062248 8.91204639,15.0277218 8.91204639,12.8523186 L8.91204639,12.8523186 Z M12.3001512,22.421119 C12.3001512,22.8782762 12.2366432,23.6582661 12.8676915,24.4637097 C11.1335685,24.2525201 10.0546875,23.6547379 9.50352826,23.2525201 C10.3734879,22.812752 11.3172883,22.5294859 12.3001512,22.421119 Z M25.4773186,32.0597278 C25.7832661,31.6494455 25.9485887,31.1534778 25.9485887,30.6315524 C25.9485887,29.8223286 25.84375,29.0191532 25.6368448,28.2444556 C25.5675403,27.985131 25.3009072,27.8306452 25.0415826,27.9002016 C24.7822581,27.9695061 24.6280242,28.2358871 24.6973286,28.4952117 C24.8823085,29.1882561 24.9763105,29.9067541 24.9763105,30.6315524 C24.9763105,31.0133568 24.827621,31.3719758 24.5574597,31.641633 C24.2883065,31.9112903 23.9296875,32.0597278 23.5478831,32.0597278 L22.1980846,32.0597278 L22.1980846,28.7857863 C22.1980846,28.5171371 21.9803427,28.2993952 21.7119455,28.2993952 C21.4432964,28.2993952 21.2255545,28.5171371 21.2255545,28.7857863 L21.2255545,32.0597278 L8.71295361,32.0597278 L8.71295361,28.7857863 C8.71295361,28.5171371 8.49521168,28.2993952 8.22656252,28.2993952 C7.95816529,28.2993952 7.74042335,28.5171371 7.74042335,28.7857863 L7.74042335,32.0597278 L6.39062503,32.0597278 C5.60357865,32.0597278 4.96219755,31.4193548 4.96219755,30.6315524 C4.96219755,27.7832661 6.39037297,25.2817541 8.60383065,23.7817541 C11.3019154,26.1449093 18.5418347,26.2273186 21.3296371,23.7757057 C22.4438004,24.5257057 23.3782762,25.5506552 24.0302419,26.7888105 C24.1554939,27.0267137 24.4490928,27.1181955 24.686996,26.9931955 C24.9243952,26.8679435 25.015877,26.5735887 24.890625,26.3364415 C24.2442036,25.1078629 23.3487903,24.0672883 22.2855343,23.2633568 C23.6995968,23.7469758 25.0060484,24.4206149 25.9072581,25.2711694 C27.6985887,26.9627016 28.8324093,29.4916835 28.9594254,32.0597278 L25.4773186,32.0597278 Z" id="Shape"></path>
                <path d="M16.9284274,26.3321573 C16.7840222,26.0824093 16.515121,25.9271674 16.2265625,25.9271674 L13.7119455,25.9271674 C13.4231351,25.9271674 13.1542339,26.0824093 13.0098286,26.3324093 L11.7525201,28.5100806 C11.608367,28.7600806 11.608367,29.0705645 11.7525201,29.3205645 L13.0100806,31.4984879 C13.1542339,31.7484879 13.4231351,31.9037298 13.7119455,31.9037298 L16.2265625,31.9037298 C16.515121,31.9037298 16.7840222,31.7484879 16.9284274,31.4984879 L18.1857359,29.3205645 C18.3301412,29.0705645 18.3301412,28.7600806 18.1857359,28.5100806 L16.9284274,26.3321573 Z M16.1330645,30.9311996 L13.8054435,30.9311996 L12.641633,28.9153226 L13.8054435,26.8996975 L16.1330645,26.8996975 L17.296875,28.9153226 L16.1330645,30.9311996 Z" id="Shape"></path>
            </g>
        </g>
    </g>
</svg>