<?xml version="1.0" encoding="UTF-8"?>
<svg width="29px" height="33px" viewBox="0 0 29 33" version="1.1" xmlns="http://www.w3.org/2000/svg" xmlns:xlink="http://www.w3.org/1999/xlink">
    <title>005-shield-1@2x</title>
    <defs>
        <filter id="filter-1">
            <feColorMatrix in="SourceGraphic" type="matrix" values="0 0 0 0 0.847000 0 0 0 0 0.847000 0 0 0 0 0.847000 0 0 0 1.000000 0"></feColorMatrix>
        </filter>
    </defs>
    <g id="Page-1" stroke="none" stroke-width="1" fill="none" fill-rule="evenodd">
        <g id="005-shield-1" transform="translate(-255.000000, -159.000000)" filter="url(#filter-1)">
            <g transform="translate(255.000000, 159.000000)">
                <path d="M28.2266922,7.53144833 C28.164505,7.06265259 27.7762756,6.71067813 27.3037033,6.69330595 C22.6066818,6.5241165 17.8656006,3.2777939 14.994667,0.295829789 C14.6114731,-0.100708008 13.9833069,-0.0956726074 13.6079178,0.293312057 C9.8567963,4.15999605 5.25569917,6.5525665 1.29888155,6.69380953 C0.825805664,6.71067813 0.437576262,7.06265259 0.375137297,7.5319519 C-1.86435698,24.3962631 6.31690976,32.9675217 14.4093018,32.9999992 L14.4546204,32.9999992 C22.2423706,32.9999992 30.5402069,24.904335 28.2266922,7.53144833 Z M26.2321701,22.3191604 C20.2964401,39.196312 -2.14558407,33.939354 1.33840942,7.66488647 C6.13865665,7.49192046 10.9535064,4.42385103 14.2997818,0.976615922 C16.0357361,2.77803036 18.0612259,4.34278105 20.1582184,5.50243379 C22.6046677,6.85469052 24.995224,7.58255766 27.2641754,7.66488647 C28.0147019,13.3095703 27.6672592,18.2399826 26.2321701,22.3191604 Z" id="Shape" fill="#000000" fill-rule="nonzero"></path>
                <path d="M25.5113525,8.78828427 C21.9274063,8.20291899 18.1294556,6.24540714 14.8169174,3.27577974 C14.5193252,3.00940703 14.0709229,3.00739287 13.7733307,3.27250675 C11.3840332,5.40122221 7.59187314,8.08760835 3.09651949,8.79483032 C2.74051665,8.85047148 2.4691086,9.13899996 2.43587496,9.49600981 C2.31074521,10.841217 2.25963594,12.1227265 2.27449032,13.3407898 C2.27776338,13.6071625 2.4942856,13.821167 2.76065825,13.821167 C3.02980038,13.821167 3.24632266,13.6031342 3.24632266,13.3355026 L3.24632266,13.3297119 C3.2324753,12.1889419 3.27854923,10.9895096 3.39083862,9.73217012 C7.97632597,8.96779634 11.825386,6.28543852 14.2932358,4.11140439 C17.66922,7.10218046 21.5351486,9.08965303 25.2132568,9.72360991 C27.4794388,34.4851914 5.25897217,35.6239472 3.31102754,15.4415588 C3.28710938,15.1928101 3.07763672,15.0022202 2.82813261,15.0022202 L2.82737735,15.0022202 C2.54086304,15.0022202 2.3152771,15.2492065 2.34322359,15.5337066 C4.41226958,36.9799805 28.6650238,35.7503357 26.1672134,9.48770142 C26.133728,9.13320923 25.8640823,8.84593965 25.5113525,8.78828427 Z" id="Path" fill="#000000" fill-rule="nonzero"></path>
                <path d="M17.6030044,8.07023624 C17.946167,6.77764893 16.2016525,5.9996796 15.4717712,7.12760929 C15.4717712,7.12760929 13.4596252,10.2727203 13.4440155,10.2966385 L10.9477158,10.2966385 C10.4653244,10.2966385 10.016922,10.5559616 9.77572632,10.9733963 L6.41409302,16.7958298 C6.17289737,17.2132644 6.17289737,17.7316589 6.41409302,18.1493454 L9.77572632,23.9715271 C9.93585205,24.2489776 10.1873703,24.4564361 10.4796753,24.5646973 L9.49500273,26.6279526 C8.86633301,27.828392 10.4396438,28.9694138 11.3865509,27.9963227 C11.4001465,27.9827271 11.4124832,27.9678726 11.4240647,27.9530182 L13.9528427,24.6482849 L17.6709824,24.6482849 C18.1533737,24.6482849 18.6020279,24.3889618 18.8429718,23.9715271 L22.2048569,18.1493454 C22.4458008,17.7316589 22.4458008,17.2132644 22.2048569,16.7958298 L20.7513886,14.2715835 C20.6166916,14.0394516 20.319603,13.9598923 20.0869675,14.0940857 C19.9308701,14.1839676 19.8440094,14.3473663 19.8440094,14.5160522 C19.8440094,14.5983811 19.8646545,14.6819687 19.9087143,14.7585068 L21.3626861,17.2825012 C21.4301606,17.3998261 21.4301606,17.5450974 21.3626861,17.6631775 L18.0010528,23.4853592 C17.933075,23.602684 17.8066864,23.6759491 17.6709824,23.6759491 L14.6970749,23.6759491 L16.1568374,21.7939682 C16.30513,21.600357 16.2870025,21.3269348 16.1145401,21.1547241 L16.1140366,21.1542206 C15.9060745,20.9462585 15.5626602,20.9689179 15.3841553,21.2025605 C13.5595779,23.5875778 11.5074005,26.2442551 10.6735382,27.3339157 C10.5750961,27.4215317 10.4809341,27.3870392 10.4182434,27.3409653 C10.3039399,27.2568741 10.3125,27.1667404 10.3681412,27.0559616 C12.9928437,21.5575562 10.2631531,27.2750015 13.7506714,19.9688873 C14.0837631,19.2714844 13.5769501,18.4592743 12.7977219,18.4592743 L9.52823637,18.4592743 C9.49575806,18.4592743 9.47108456,18.4441681 9.45547485,18.4157181 C9.43986514,18.3872681 9.44062041,18.3585663 9.45799259,18.3313751 C17.4630203,5.82016753 12.1494141,14.1237945 16.2890167,7.65456392 C16.3688278,7.53270723 16.4730606,7.54630278 16.547081,7.57928467 C16.6183319,7.61125948 16.6961289,7.67722319 16.6656646,7.80940243 C14.7114258,13.3279495 16.755043,7.55738066 14.2219849,14.7071457 C13.978775,15.3929672 14.4883575,16.1145401 15.2162247,16.1145401 L19.0907135,16.1145401 C19.1030502,16.1145401 19.1418228,16.1145401 19.1652374,16.1611176 C19.1878967,16.2071915 19.1639786,16.2376557 19.1561737,16.2479782 C18.5886841,16.9899444 17.6090469,18.2696915 16.5025177,19.7166138 C16.354477,19.9102249 16.3723526,20.1836472 16.544815,20.3561096 C16.7525253,20.5640717 17.0959397,20.5411606 17.2746963,20.3077698 L19.9288559,16.8391342 C20.4590835,16.1450043 19.9646072,15.1422043 19.0907135,15.1422043 L15.2162247,15.1422043 C15.1877747,15.1422043 15.1651153,15.1306228 15.1487503,15.1072083 C15.1318817,15.0837937 15.1288604,15.0586167 15.1384277,15.031929 L16.4712982,11.2689743 L17.6709824,11.2689743 C17.8066864,11.2689743 17.933075,11.3422393 18.0010528,11.4595642 L18.9099426,13.0336304 C19.044136,13.2662659 19.3414765,13.3460769 19.5743637,13.2118835 C19.7299576,13.1217499 19.8173218,12.9583511 19.8173218,12.7904205 C19.8173218,12.7080918 19.7959213,12.6245041 19.7518616,12.547966 L18.8429718,10.9733963 C18.6020279,10.5559616 18.1533737,10.2966385 17.6709824,10.2966385 L16.8159714,10.2966385 L17.5894089,8.11354062 C17.5931855,8.10170747 17.5992279,8.08206938 17.6030044,8.07023624 L17.6030044,8.07023624 Z M8.63948824,17.8069382 C8.1895752,18.5108872 8.69764706,19.4313584 9.52823637,19.4313584 L12.7977219,19.4313584 C12.828186,19.4313584 12.8521042,19.4444504 12.8684692,19.4703827 C12.8845825,19.4955597 12.8858414,19.5227509 12.8730011,19.549942 L10.9049148,23.6734314 C10.7855759,23.6598358 10.6788254,23.5903473 10.617897,23.4853592 L7.25601196,17.6624222 C7.18878935,17.5450974 7.18878935,17.3998261 7.25601196,17.2819976 L10.617897,11.4595642 C10.685875,11.3422393 10.8122635,11.2689743 10.9477158,11.2689743 L12.8223953,11.2689743 L8.63948824,17.8069382 Z" id="Shape" fill="#000000" fill-rule="nonzero"></path>
            </g>
        </g>
    </g>
</svg>