<?xml version="1.0" encoding="UTF-8"?>
<svg width="30px" height="27px" viewBox="0 0 30 27" version="1.1" xmlns="http://www.w3.org/2000/svg" xmlns:xlink="http://www.w3.org/1999/xlink">
    <title>004-shield</title>
    <defs>
        <filter id="filter-1">
            <feColorMatrix in="SourceGraphic" type="matrix" values="0 0 0 0 0.847000 0 0 0 0 0.847000 0 0 0 0 0.847000 0 0 0 1.000000 0"></feColorMatrix>
        </filter>
    </defs>
    <g id="Page-1" stroke="none" stroke-width="1" fill="none" fill-rule="evenodd">
        <g id="004-shield" transform="translate(-121.000000, -165.000000)" filter="url(#filter-1)">
            <g transform="translate(121.000000, 165.000000)">
                <path d="M29.7351837,12.2664642 L25.9069061,5.63598633 C25.7837677,5.42243959 25.5104828,5.34942627 25.2971649,5.47256473 C25.0836182,5.59593199 25.010376,5.86898801 25.1337433,6.0825348 C29.2808532,13.2657623 29.107132,12.8475952 29.107132,13.2554626 C29.107132,13.6706543 29.5170593,12.83638 22.4507904,25.0753784 C22.2576141,25.4100036 21.897583,25.6178284 21.5110016,25.6178284 L8.4889984,25.6178284 C8.10264586,25.6178284 7.74238588,25.4100036 7.54920961,25.0753784 L3.16726688,17.4854279 C3.04412842,17.2718811 2.77084348,17.1986389 2.55752566,17.3220062 C2.34397887,17.4453735 2.27073668,17.7184296 2.394104,17.9319763 L6.77604674,25.5219269 C7.1282959,26.131897 7.78450014,26.5109253 8.4889984,26.5109253 L21.5110016,26.5109253 C22.2154999,26.5109253 22.871933,26.131897 23.2241821,25.5219269 L29.7351837,14.2444611 C30.0899505,13.6296844 30.0865173,12.875061 29.7351837,12.2664642 Z" id="Path" fill="#000000" fill-rule="nonzero"></path>
                <path d="M1.03820801,13.7979126 C0.844573945,13.4626007 0.844345078,13.0487824 1.03820801,12.7127838 L7.54920961,1.43554688 C7.74238588,1.1009216 8.10241699,0.892868027 8.4889984,0.892868027 L21.5110016,0.892868027 C21.897583,0.892868027 22.2576141,1.1009216 22.4507904,1.43554688 L24.2406463,4.5359802 C24.3640137,4.74952699 24.6370697,4.82254031 24.8506165,4.69940186 C25.0641632,4.57603453 25.1371765,4.30297852 25.0140381,4.08943178 L23.2241821,0.988998398 C22.871933,0.37902832 22.2154999,0 21.5110016,0 L8.4889984,0 C7.78450014,0 7.1282959,0.37902832 6.77604674,0.988998398 L0.265045195,12.2664642 C-0.0901794141,12.8812409 -0.0865173047,13.6358643 0.265045195,14.2444611 L1.50100711,16.3851929 C1.62460324,16.5994263 1.89788818,16.6717529 2.11097719,16.5486145 C2.32452393,16.4254761 2.39753725,16.1524201 2.27439879,15.9388733 L1.03820801,13.7979126 Z" id="Path" fill="#000000" fill-rule="nonzero"></path>
                <path d="M21.8367005,2.75321959 C21.5982056,2.34008789 21.1537171,2.08351137 20.6767273,2.08351137 L9.32327273,2.08351137 C8.84605406,2.08351137 8.40179443,2.34008789 8.16329953,2.75321959 L2.48657227,12.5857544 C2.24739076,12.9995728 2.24716184,13.5106659 2.48657227,13.9251709 L6.35650635,20.6282044 C6.4796448,20.8417511 6.75292969,20.9149933 6.96647643,20.791626 C7.18002316,20.6684876 7.25303648,20.3952026 7.12989809,20.1818848 C2.95005797,12.9423523 3.19999693,13.4287262 3.19999693,13.2554626 C3.19999693,13.0792236 2.82897949,13.7782288 8.9364624,3.19976807 C9.01611328,3.06198117 9.16419984,2.97637939 9.32327273,2.97637939 L20.6767273,2.97637939 C20.8358002,2.97637939 20.9838867,3.06198117 21.0635376,3.19976807 C27.1772003,13.7889862 26.8002319,13.080368 26.8002319,13.2554626 C26.8002319,13.4317017 27.1710205,12.7324676 21.0635376,23.3111572 C20.9838867,23.4487152 20.8358002,23.534317 20.6769562,23.534317 L9.32327273,23.534317 C9.16419984,23.534317 9.01611328,23.4487152 8.9364624,23.3111572 L8.02276611,21.7284393 C7.89939879,21.5146637 7.62611391,21.4416504 7.41279604,21.5650177 C7.1992493,21.6881561 7.12600711,21.9612122 7.24937438,22.1747589 L8.16329953,23.7574768 C8.40179443,24.1706085 8.84628293,24.4271851 9.32327273,24.4271851 L20.6769562,24.4271851 C21.1539459,24.4271851 21.5984344,24.1706085 21.8367005,23.7574768 C28.0213165,13.0458069 27.6931,13.7560272 27.6931,13.2554626 C27.6931,12.7491761 28.008728,13.4433746 21.8367005,2.75321959 Z" id="Path" fill="#000000" fill-rule="nonzero"></path>
                <path d="M19.3682098,15.2490234 L22.1315003,12.555542 C22.7446747,11.9579315 22.4057007,10.9160614 21.5588379,10.7931519 L17.7401733,10.2381134 C17.694397,10.2314759 17.6548004,10.2028656 17.63443,10.161438 L15.9267425,6.7009735 C15.5477142,5.93330385 14.4522858,5.93353271 14.0734863,6.7009735 L12.365799,10.161438 C12.3451996,10.2028656 12.3058319,10.2317047 12.2600555,10.2383423 L8.44139098,10.7931519 C7.59407045,10.9162903 7.25578307,11.9581604 7.86872865,12.555542 L10.632019,15.2492523 C10.664978,15.2815247 10.6800843,15.3277588 10.6723022,15.3733063 L10.019989,19.1766357 C9.8751068,20.0205231 10.7617951,20.6641388 11.5193939,20.2658844 C15.1904297,18.3359528 14.970932,18.420639 15.0654602,18.4703064 L18.4810638,20.2658844 C19.2375183,20.663681 20.1251221,20.020752 19.9802399,19.1766357 C19.2791748,15.0888062 19.2917633,15.3236389 19.3682098,15.2490234 L19.3682098,15.2490234 Z M18.4476471,15.5241394 C19.1484833,19.6105957 19.1452789,19.3913269 19.0443421,19.464798 C19.0180206,19.4840241 18.9637757,19.5108032 18.8964844,19.4755554 C15.1714325,17.5170135 15.346756,17.5609588 15,17.5609588 C14.8349762,17.5609588 14.6697235,17.6005554 14.5193481,17.6797485 C10.8483124,19.6096802 11.0568237,19.5380402 10.9558869,19.464798 C10.8549499,19.3913269 10.8512878,19.6110534 11.5523529,15.5241394 C11.6098022,15.1888275 11.4985657,14.8468781 11.2550354,14.6095276 C8.2848358,11.7144012 8.41781613,11.8908691 8.45626828,11.7723083 C8.49472043,11.6535187 8.2848358,11.7180633 12.3884583,11.1218262 C12.7249146,11.0728454 13.0158234,10.8615875 13.1664276,10.556488 L14.874115,7.09625244 C14.9258423,6.99119566 15.0741577,6.99119566 15.125885,7.09625244 L16.8335724,10.556488 C16.9841766,10.8615875 17.2750854,11.0728454 17.6117706,11.1218262 C21.7149353,11.7180633 21.5052796,11.6537476 21.5437317,11.7723083 C21.5821839,11.8908691 21.7142487,11.7150879 18.7449646,14.6095276 C18.5014343,14.8468781 18.3901978,15.1888275 18.4476471,15.5241394 L18.4476471,15.5241394 Z" id="Shape" fill="#000000" fill-rule="nonzero"></path>
            </g>
        </g>
    </g>
</svg>